<?xml version="1.0" encoding="UTF-8"?><svg id="Layer_1" xmlns="http://www.w3.org/2000/svg" xmlns:xlink="http://www.w3.org/1999/xlink" viewBox="0 0 192 192"><defs><style>.cls-1{fill:none;}.cls-2{clip-path:url(#clippath);}.cls-3{fill:#fff;}.cls-4{fill:#2c62ae;}</style><clipPath id="clippath"><rect class="cls-1" x="31.5" y="29.38" width="128.99" height="133.24"/></clipPath></defs><rect id="Frame_912_Background_Mask_" class="cls-4" width="192" height="192"/><g class="cls-2"><path id="Path_96603" class="cls-3" d="M87.33,91.64l19.87-10.84c1.46-.77,2.38-2.28,2.4-3.93V38.33c-.02-1.76-1-3.36-2.55-4.18-2.74-1.5-6.7-3.66-6.7-3.66-2.72-1.48-6-1.49-8.72-.01,0,0-46.37,25.26-57.67,31.42-1.49,.78-2.44,2.32-2.46,4.01v10.74c.09,1.81,1.63,3.2,3.43,3.1,.51-.03,1.01-.17,1.46-.43,2.15-1.16,4.8-2.59,7.06-3.8,1.58-.9,3.6-.35,4.5,1.23,.26,.45,.4,.96,.43,1.47l-.05,69.44c3.19-.46,6.24-1.61,8.94-3.38,5.37-3.76,8.5-9.97,8.33-16.52l.02-52.35c0-1.85-.6-5.42,3.35-11.45,3.24-4.95,9.08-7.25,9.08-7.25,1.43-.81,3.25-.31,4.06,1.12,.23,.4,.36,.86,.38,1.32l-.06,29.8c.09,1.8,1.62,3.18,3.42,3.09,.52-.03,1.02-.17,1.46-.43"/><path id="Path_96604" class="cls-3" d="M158.88,62.48l-27.39-14.92c-1.54-.89-3.51-.36-4.4,1.18-.26,.44-.4,.94-.43,1.45,0,20.55,0,58.52,0,68.44-.07,3.72-1.36,7.32-3.69,10.22-4.11,5.18-8.23,6.4-8.23,6.4-2.12,1.15-5.06,.1-5.06-2.21v-30.03c-.09-1.75-1.58-3.1-3.33-3.01-.5,.03-1,.17-1.43,.42l-19.9,10.89c-1.5,.79-2.45,2.34-2.48,4.04-.01,8.47-.04,34.06-.04,34.3,.07,7.22,5.97,13.02,13.2,12.96,.13,0,.25,0,.38,0,2.74-.12,24.98-11.89,38.16-18.99,5.9-3.07,9.63-9.13,9.71-15.78v-49.54c.08-1.75,1.57-3.1,3.33-3.01,.5,.03,.99,.17,1.43,.42l7.06,3.84c1.52,.88,3.46,.36,4.34-1.16,.25-.44,.4-.93,.42-1.43,0,0,0-8.18,0-11.86-.01-1.1-.63-2.11-1.61-2.62"/></g></svg>